<?xml version="1.0" encoding="UTF-8" standalone="no"?>
<svg
   width="195"
   height="181"
   viewBox="0 0 195 181"
   fill="none"
   version="1.1"
   id="svg30"
   sodipodi:docname="academic_sciprofiles.svg"
   inkscape:version="1.1.2 (b8e25be833, 2022-02-05)"
   xmlns:inkscape="http://www.inkscape.org/namespaces/inkscape"
   xmlns:sodipodi="http://sodipodi.sourceforge.net/DTD/sodipodi-0.dtd"
   xmlns="http://www.w3.org/2000/svg"
   xmlns:svg="http://www.w3.org/2000/svg">
  <defs
     id="defs34" />
  <sodipodi:namedview
     id="namedview32"
     pagecolor="#ffffff"
     bordercolor="#cccccc"
     borderopacity="1"
     inkscape:pageshadow="0"
     inkscape:pageopacity="1"
     inkscape:pagecheckerboard="0"
     showgrid="false"
     inkscape:zoom="2.1636726"
     inkscape:cx="115.54428"
     inkscape:cy="101.67897"
     inkscape:window-width="1920"
     inkscape:window-height="1009"
     inkscape:window-x="-8"
     inkscape:window-y="-8"
     inkscape:window-maximized="1"
     inkscape:current-layer="svg30" />
  <path
     d="M 32.2498,99.5374 C 32.5005,83.9977 35.1853,61.0092 39.8515,41.7329 L 0.259033,61.578 40.9217,168.943 l 87.1533,11.277 7.908,-8.494 C 111.563,170.833 68.0995,154.309 45.5146,139.246 35.644,132.653 32.0969,110.356 32.2498,99.5374 Z"
     fill="#337a87"
     id="path2" />
  <path
     d="M 190.375,50.1482 C 187.354,32.4925 163.466,15.1121 144.63,10.189 112.413,1.74952 69.9587,-6.11512 54.1131,8.56228 48.3155,13.9318 43.4964,26.7133 39.8699,41.7087 l 45.0109,-22.5542 93.3422,21.0192 7.339,78.2793 -49.579,53.273 c 2.675,0.133 5.357,-0.002 8.005,-0.404 15.332,-2.538 36.565,-18.958 42.124,-36.149 5.376,-16.616 9.156,-56.41 4.263,-85.0248 z"
     fill="#9fd6e0"
     id="path4" />
  <path
     d="M 178.223,40.1735 84.8807,19.1787 39.8698,41.733 c -4.6662,19.3007 -7.3387,42.2647 -7.6017,57.8044 -0.1712,10.8186 3.3758,33.1156 13.2464,39.7086 22.5605,15.063 66.0485,31.587 90.4685,32.48 l 49.579,-53.273 z"
     fill="#35c5df"
     id="path6" />
  <path
     d="m 51.2083,118.6 7.1369,-8.409 c 4.8925,4.611 11.375,7.712 17.6496,7.712 7.5773,0 11.7114,-3.413 11.7114,-8.641 0,-5.504 -4.3543,-7.272 -10.5127,-9.8832 L 67.9283,95.3609 C 61.2012,92.5722 54.1866,87.2394 54.1866,77.3077 c 0,-10.8551 9.5892,-19.2335 22.909,-19.2335 7.8729,0.0149 15.4219,3.1356 21.0071,8.6841 l -6.2868,7.7729 c -4.336,-3.6693 -8.9288,-5.8098 -14.7203,-5.8098 -6.3786,0 -10.5249,2.9661 -10.5249,7.8708 0,5.2716 5.131,7.2164 10.7818,9.5281 l 9.1367,3.8283 c 8.1032,3.3636 13.7298,8.5007 13.7298,18.3464 0,11.039 -9.1737,20.261 -24.4627,20.261 -9.1675,0.008 -17.9757,-3.565 -24.548,-9.956 z"
     fill="#000000"
     id="path8"
     style="fill:#ffffff" />
  <path
     d="m 107.667,101.794 c 0,-17.02 12.054,-26.8416 25.686,-26.8416 5.525,-0.0453 10.863,2.0019 14.94,5.7303 l -5.907,7.9013 c -2.691,-2.3545 -5.235,-3.6693 -8.397,-3.6693 -8.177,0 -13.815,6.7271 -13.815,16.9093 0,10.183 5.571,16.83 13.454,16.83 3.957,0 7.59,-1.938 10.489,-4.372 l 4.941,7.993 c -4.616,4.054 -10.552,6.286 -16.696,6.274 -13.98,0 -24.695,-9.821 -24.695,-26.755 z"
     fill="#000000"
     id="path10"
     style="fill:#ffffff" />
  <path
     d="m 155.785,60.4954 c 0,-4.0729 3.199,-6.8494 7.492,-6.8494 4.293,0 7.492,2.7765 7.492,6.8494 0,4.073 -3.199,6.8495 -7.492,6.8495 -4.293,0 -7.492,-2.856 -7.492,-6.8495 z m 1.364,15.7049 h 12.176 v 51.1017 h -12.151 z"
     fill="#000000"
     id="path12"
     style="fill:#ffffff" />
</svg>
