<?xml version="1.0" encoding="UTF-8" standalone="no"?>
<!-- License: CC0. Made by SVG Repo: https://www.svgrepo.com/svg/331358/credly -->

<svg
   width="1024px"
   height="1024px"
   viewBox="0 0 1024 1024"
   version="1.1"
   id="svg6"
   sodipodi:docname="credly.svg"
   inkscape:version="1.1.2 (b8e25be833, 2022-02-05)"
   xmlns:inkscape="http://www.inkscape.org/namespaces/inkscape"
   xmlns:sodipodi="http://sodipodi.sourceforge.net/DTD/sodipodi-0.dtd"
   xmlns="http://www.w3.org/2000/svg"
   xmlns:svg="http://www.w3.org/2000/svg">
  <defs
     id="defs10" />
  <sodipodi:namedview
     id="namedview8"
     pagecolor="#ffffff"
     bordercolor="#cccccc"
     borderopacity="1"
     inkscape:pageshadow="0"
     inkscape:pageopacity="1"
     inkscape:pagecheckerboard="0"
     showgrid="false"
     inkscape:zoom="0.640625"
     inkscape:cx="512"
     inkscape:cy="512"
     inkscape:window-width="1920"
     inkscape:window-height="1009"
     inkscape:window-x="-8"
     inkscape:window-y="-8"
     inkscape:window-maximized="1"
     inkscape:current-layer="svg6" />
  <circle
     cx="512"
     cy="512"
     style="fill:#000000"
     id="circle2"
     r="512" />
  <path
     d="m 761.8494,291.99024 h 4.70768 c 5.80614,0.45899 11.61228,3.21288 15.2215,7.64971 5.33537,6.42576 6.74767,14.99343 7.21844,23.10212 1.25538,24.63206 -4.23691,49.11113 -11.45535,72.67223 -9.25844,31.21081 -22.28303,61.19767 -32.95377,91.94949 -1.88307,5.3548 -3.76615,10.86259 -5.17845,16.37038 -2.35384,9.17965 -2.04,18.81828 -2.35384,28.30392 -0.31385,8.87366 0.31384,17.74732 2.03999,26.46799 0.94154,4.74282 2.98154,9.79163 6.74768,13.1575 3.4523,3.05988 8.47383,4.43683 13.02458,3.05988 6.11999,-1.83593 10.98459,-6.42575 15.37843,-10.86259 6.11998,-6.57874 11.92612,-13.31049 16.16304,-21.11319 5.96306,-10.4036 9.41536,-21.87817 11.14151,-33.65872 2.35384,-17.74732 4.23691,-35.80063 10.82766,-52.62999 2.51077,-6.42575 5.64922,-13.0045 11.61228,-16.98235 8.00306,-5.50779 20.08611,-3.21288 26.20609,4.13084 2.98154,3.67186 3.76615,8.41468 3.76615,12.85151 -0.31385,5.96677 -1.56923,11.93355 -3.60922,17.59433 -7.06152,20.19523 -11.14151,41.46142 -10.3569,62.8806 0.15692,4.89581 0.62769,10.09762 3.29538,14.53445 2.19691,3.67186 5.96306,6.57875 10.35689,6.57875 5.02153,0 9.41537,-2.90689 12.55382,-6.42576 4.8646,-5.35479 8.78767,-11.47456 11.92612,-17.90032 6.27691,-13.0045 9.25844,-27.23296 11.92613,-41.30842 2.19692,-11.93355 4.39384,-23.86709 7.84613,-35.49465 1.88308,-5.96677 4.23692,-11.93354 8.78768,-16.52337 2.98153,-3.21287 7.53229,-4.43683 11.7692,-4.43683 4.39383,0.153 8.47382,2.6009 11.45535,5.81378 4.07999,4.43683 4.86461,10.5566 4.39384,16.21738 -4.39384,33.81171 -9.25844,67.62342 -13.18151,101.43513 -2.8246,21.1132 -5.33537,42.22639 -7.21844,63.33959 -0.15692,2.29491 2.66769,3.67186 4.23691,2.14192 11.29844,-10.5566 22.43995,-21.57218 30.91377,-34.42369 3.92307,-5.81378 6.74768,-12.08654 10.51382,-17.90032 1.56923,-2.6009 3.4523,-5.2018 6.43384,-6.11976 4.55075,-2.14192 10.35689,-1.52995 14.27996,1.52994 2.98153,2.14192 4.55076,5.66078 5.02153,9.17965 v 4.13084 c -0.94154,7.03773 -5.17845,13.0045 -8.31691,19.12427 -8.63074,16.82936 -20.55687,32.12877 -35.46453,44.21531 -10.67074,8.87366 -23.22455,15.60541 -36.40606,20.19523 -0.78461,0.30599 -2.04,0.45899 -2.19692,1.52994 -4.8646,19.43026 -15.69227,37.33058 -30.28608,51.25305 -16.16304,15.6054 -37.03376,26.315 -59.15986,31.3638 -12.08304,2.6009 -24.79378,3.67186 -37.03375,1.52995 -12.55382,-2.29492 -24.79379,-7.9557 -33.73838,-16.82936 -8.15998,-7.9557 -13.65228,-18.5123 -14.59381,-29.83386 -0.94154,-10.25061 1.72615,-20.65422 6.74767,-29.68087 5.80614,-10.25061 14.59381,-18.81829 24.95071,-24.78506 9.88613,-5.81378 21.18456,-8.56767 32.32608,-9.94462 12.71073,-1.37695 25.73532,-1.37695 38.60298,-0.30599 8.00306,0.61198 16.00612,1.37695 24.00917,1.98893 4.39384,0.30599 9.25844,1.83593 13.49535,-0.30599 2.98154,-1.37695 3.92307,-4.89581 4.39384,-7.8027 1.88307,-13.76948 4.70768,-27.69195 2.98153,-41.76741 -0.31384,-1.83593 -0.78461,-4.58982 -3.13845,-4.74282 -2.82461,1.22395 -4.23692,4.13084 -5.80614,6.57875 -4.86461,9.17965 -13.96612,16.21738 -24.47994,18.20631 -10.51382,1.98892 -21.96918,-3.21288 -26.83378,-12.39253 -2.35384,-3.82486 -3.4523,-8.41468 -6.9046,-11.62756 -2.35384,-2.14192 -5.80614,-2.14192 -8.63075,-0.91796 -5.02153,2.14192 -8.3169,6.57875 -12.39689,9.94462 -10.67075,9.33264 -24.1661,16.37037 -38.75991,17.13534 -16.94765,1.07096 -34.36607,-8.26168 -41.42759,-23.5611 -0.94154,-2.14192 -1.72615,-5.2018 -4.55076,-5.50779 -3.13846,-0.45898 -5.4923,1.98893 -7.21845,4.13085 -8.3169,10.2506 -16.16303,21.26618 -27.14762,28.91589 -7.06152,4.89582 -15.53535,8.26169 -24.32302,8.10869 -9.25844,-0.15299 -18.51688,-5.0488 -22.91071,-13.0045 -2.04,-3.51887 -2.82461,-7.9557 -6.11999,-10.70959 -2.51076,-2.14192 -6.43383,-1.83593 -9.10152,-0.153 -4.07999,2.29492 -6.43383,6.42576 -9.7292,9.63864 -9.10152,8.87366 -22.28303,13.31049 -34.99376,12.08653 -15.37843,-1.52994 -29.34455,-11.93354 -34.99377,-26.009 -0.78461,-1.98893 -1.88307,-4.28384 -4.07999,-4.89582 -1.72615,-0.61197 -3.13845,0.61198 -4.23691,1.68294 -8.47382,7.64971 -16.94765,15.45241 -27.14763,20.80721 -10.35689,5.35479 -21.81225,8.87366 -33.58145,8.56767 -12.3969,0.15299 -24.79379,-3.51887 -34.83684,-10.4036 -8.47383,-5.66079 -15.2215,-13.61649 -19.14457,-22.94913 -1.09846,-2.44791 -2.51076,-5.2018 -5.33537,-5.81378 -2.51077,-0.61197 -4.70768,1.22396 -6.11999,3.05989 -4.23691,5.81377 -9.7292,10.86258 -15.84919,14.68744 -9.41536,5.96677 -20.39995,10.09761 -31.85531,10.09761 -8.78767,0 -17.57534,-3.21288 -23.85225,-9.17965 -6.74767,-6.42575 -10.3569,-15.45241 -11.7692,-24.47907 -1.72615,-11.78055 0.78461,-23.71409 4.23691,-34.88267 2.19692,-7.34372 5.02153,-14.38145 6.74768,-21.87816 0.94153,-3.82485 1.25538,-7.9557 -0.47077,-11.47456 -1.4123,-2.7539 -4.39383,-4.43683 -7.21844,-5.66079 -3.13846,-1.22395 -6.43383,0.45899 -8.63075,2.44791 -2.19692,1.98892 -3.29538,4.58982 -4.55076,7.19073 -7.68921,18.05331 -18.04611,35.03566 -30.75685,50.18208 -12.23997,14.68744 -26.83378,27.38596 -42.52605,38.55453 -17.88919,12.39253 -38.44606,21.41918 -60.25832,24.32607 -15.84919,2.14192 -32.32607,0.91797 -47.7045,-3.51886 -9.10151,-2.6009 -18.046106,-6.27276 -25.892241,-11.62756 C 77.823357,603.02738 66.995691,590.32886 59.306479,576.2534 53.343416,565.39082 48.792658,553.76326 45.497282,541.82971 40.946523,524.84736 39.377296,507.40603 38.592683,489.96469 v -11.93354 c 0.313845,-12.85151 1.569227,-25.70302 4.236913,-38.24854 4.707681,-22.79613 13.181506,-44.6743 24.636863,-65.02252 9.101517,-15.9114 19.929183,-30.90482 33.581461,-43.29735 14.90765,-13.61648 32.95376,-24.17308 52.88295,-28.45692 18.98764,-4.13084 39.38759,-3.05988 57.11986,4.89582 5.33537,2.29491 10.04305,5.66078 15.69227,7.34372 3.92306,1.22395 8.47382,0.76497 11.7692,-1.68294 5.02153,-3.82485 7.37537,-9.94462 11.61228,-14.53444 5.33537,-5.66079 13.96612,-7.9557 21.49841,-5.81378 7.06152,1.98892 12.55381,7.95569 14.27996,14.84043 1.09846,4.58983 0.47077,9.33265 -0.94153,13.76948 -2.19692,6.27276 -5.80614,11.93354 -9.25844,17.59432 -11.45536,19.27727 -20.08611,40.08448 -25.5784,61.65665 -1.72615,6.57875 -3.13845,13.46349 -5.80614,19.73625 -2.51076,5.96677 -6.43383,11.62756 -12.08305,15.29942 -4.8646,3.21287 -11.29843,4.74282 -17.10457,3.05988 -5.33537,-1.52994 -9.41536,-5.81378 -11.61228,-10.70959 -2.51077,-5.2018 -3.29538,-11.16858 -2.51077,-16.98235 1.56923,-13.61648 9.25844,-26.00901 9.57229,-39.93148 0.31384,-7.8027 -2.35384,-15.91139 -8.63075,-20.9602 -8.78767,-7.34372 -21.18456,-9.33265 -32.32607,-7.8027 -13.18151,1.68293 -25.5784,7.8027 -35.30761,16.52337 -10.51382,9.48563 -18.35996,21.41918 -24.63687,33.81171 -18.203028,35.49464 -26.206086,76.19109 -21.498405,115.66359 1.569227,12.85151 4.707681,25.70301 10.984589,37.33057 3.923066,7.34372 9.101516,13.92247 15.535346,19.12427 8.3169,6.73175 18.35996,11.32157 29.0307,13.31049 15.2215,2.90689 31.22762,0.91797 45.50758,-4.43683 19.14457,-7.19072 35.77838,-20.04223 48.95988,-35.18865 7.06153,-7.80271 13.18151,-16.37038 19.14457,-25.09105 5.96307,-8.10869 12.23997,-16.67636 14.59381,-26.62098 1.56923,-6.57875 0.15693,-13.31049 -1.4123,-19.73625 -1.09846,-8.87366 2.35384,-17.90032 8.3169,-24.47907 3.76615,-3.82485 8.47383,-7.34372 13.96612,-8.41467 5.17845,-0.91797 10.98459,0 15.37843,3.21287 4.8646,3.36587 7.37536,9.79163 5.64921,15.45241 -1.09845,3.67186 -2.35384,7.49672 -1.25538,11.32157 1.09846,3.21288 4.39384,5.2018 7.68921,5.3548 7.53229,0.61197 15.37843,-0.76497 22.59687,1.68293 8.47383,3.21288 16.00612,9.79163 18.83073,18.5123 1.88307,5.81378 2.51076,12.39252 0.62769,18.2063 -3.29538,11.32157 -7.37537,22.49014 -9.57229,34.1177 -0.62769,3.82486 -1.25538,7.8027 -0.15692,11.62756 0.62769,2.75389 3.13845,5.2018 6.11999,5.35479 5.17844,0.45899 9.88613,-2.29491 13.49535,-5.66078 7.37536,-7.19073 12.23997,-16.37038 15.69227,-25.85601 4.23691,-11.47457 6.43383,-23.56111 9.57228,-35.34166 3.29538,-12.08654 8.31691,-23.86709 16.16304,-33.81171 11.61228,-14.99342 30.443,-24.63206 49.90142,-24.17307 10.82766,0.15299 21.49841,4.28383 29.18762,11.93354 6.43383,6.42576 9.88613,15.14642 11.29843,24.02008 2.35384,14.99343 -0.47076,30.75183 -7.53229,44.36831 -9.7292,18.66529 -29.65839,31.97578 -51.1568,33.65872 -3.13845,0.30599 -6.74767,0.15299 -9.10151,2.4479 -2.04,1.98893 -1.88307,5.04881 -1.56923,7.64971 0.78461,7.03773 3.13846,14.22846 8.00306,19.73625 5.64922,5.66078 14.12304,9.63863 22.43994,7.8027 9.57229,-1.98892 17.73227,-7.95569 24.47995,-14.38145 6.43383,-6.27276 12.08304,-13.31049 17.26149,-20.65421 7.21845,-10.09762 11.61228,-21.72517 16.00612,-33.04674 4.23691,-11.16857 8.15998,-22.49014 15.2215,-32.28177 5.64922,-8.26168 13.02458,-15.45241 21.81225,-20.65421 9.72921,-5.96677 21.34149,-9.02666 32.95377,-8.41468 3.60922,0.15299 7.68921,0.30599 10.67074,-1.83593 2.66769,-1.98892 3.60923,-5.50779 3.60923,-8.72067 0,-5.81378 0.62769,-11.47456 1.09845,-17.28834 0.78462,-9.02665 1.56923,-18.05331 2.82461,-26.92697 2.66769,-22.33715 7.37537,-44.36831 13.49536,-65.94049 3.13845,-10.86258 7.21844,-21.87816 14.27996,-31.05781 2.98153,-4.13084 6.59075,-8.10869 11.29844,-10.5566 4.55075,-2.6009 10.35689,-2.44791 15.2215,-1.07096 6.2769,1.83593 10.35689,7.64971 12.86766,13.1575 4.55076,10.86259 3.29537,22.94912 2.35384,34.42369 -1.25538,18.05331 -5.64922,35.80063 -9.41536,53.54795 -3.29538,15.60541 -5.96307,31.36381 -8.9446,46.96921 -4.07999,21.41919 -8.00305,42.99136 -12.08304,64.41055 -3.4523,17.59433 -7.37537,35.49464 -5.17845,53.54795 0.62769,4.74282 1.25538,9.94462 4.55075,13.61648 2.35384,2.60091 6.27691,3.21288 9.41537,2.14192 4.23691,-1.37694 7.21844,-5.0488 9.41536,-8.72066 5.17845,-8.56768 9.72921,-17.59433 14.27996,-26.62099 6.59076,-12.54552 13.18151,-25.55002 15.37843,-39.62549 3.4523,-21.41918 5.80614,-43.14435 8.94459,-64.71653 2.51076,-16.06439 5.33537,-32.12877 8.00306,-48.04017 3.29538,-20.04223 7.06152,-39.93147 12.86766,-59.36173 2.82461,-9.17965 6.59075,-18.20631 13.18151,-25.39703 5.96306,-5.81378 13.02458,-9.94463 20.87072,-10.7096 z M 458.67474,469.76946 c -3.13845,0.91797 -5.64921,3.36587 -7.68921,5.81378 -4.55076,5.66079 -8.00306,12.08654 -10.3569,18.97128 -2.51076,7.34372 -4.8646,14.99343 -3.92306,22.64313 0.15692,2.29492 2.51076,3.97785 4.70768,3.97785 4.23691,0.153 8.00306,-2.14192 11.29843,-4.58982 7.37537,-5.04881 12.08305,-12.85151 15.37843,-20.80721 2.03999,-5.04881 3.4523,-10.5566 2.98153,-16.06439 -0.31385,-3.67186 -2.19692,-7.49671 -5.4923,-9.33264 -2.03999,-1.22395 -4.70768,-1.37695 -6.9046,-0.61198 z m 134.48276,17.13535 c -8.78768,1.52994 -16.63381,6.57875 -22.28303,13.31049 -6.11998,7.19073 -10.3569,15.9114 -12.55381,25.09105 -3.29538,13.0045 -3.60922,26.77397 0,39.77848 1.09846,3.97785 2.98153,7.95569 6.11998,10.86258 2.04,1.98893 4.86461,3.05989 7.68921,3.21288 7.37537,1.07096 14.27997,-2.90689 19.92919,-7.03773 7.06152,-5.04881 11.61228,-12.54552 14.43689,-20.50122 1.72614,-4.89581 0.62769,-10.09761 0.15692,-15.14642 -0.78462,-10.25061 -0.78462,-20.50122 -0.15692,-30.75183 0.15692,-3.51886 1.25538,-6.88474 1.25538,-10.4036 0,-2.7539 -1.09846,-5.81378 -3.76615,-7.34372 -3.29537,-1.98893 -7.21844,-1.68294 -10.82766,-1.07096 z m 209.80564,182.98102 c -7.53229,0.45898 -15.06458,1.98892 -22.1261,4.89581 -7.68921,3.05989 -14.27996,8.72067 -17.57534,16.06439 -2.19692,4.58983 -3.13845,10.09762 -0.78461,14.68744 2.35384,4.74282 6.74767,8.26169 11.61228,10.4036 6.74767,2.90689 14.27996,3.36588 21.34148,2.6009 22.28303,-2.4479 43.46759,-13.61648 57.59063,-30.59883 2.82461,-3.36587 5.02153,-7.19072 7.37537,-10.86258 0.62769,-1.22396 1.56923,-3.21288 0.15692,-4.28384 -1.72615,-1.22395 -3.92306,-0.76497 -5.80614,-0.76497 -8.00305,-0.45898 -16.00611,-1.22395 -24.00917,-1.52994 -9.25844,-0.45899 -18.51688,-1.22396 -27.77532,-0.61198 z"
     style="fill:#ffffff;stroke-width:1.54946"
     id="path4" />
</svg>
