<?xml version="1.0" encoding="UTF-8" standalone="no"?>
<svg
   width="24"
   height="24"
   viewBox="0 0 24 24"
   fill="none"
   version="1.1"
   id="svg4"
   sodipodi:docname="academic_googlescholar.svg"
   xml:space="preserve"
   inkscape:version="1.4.3 (1:1.4.3+202512261034+0d15f75042)"
   xmlns:inkscape="http://www.inkscape.org/namespaces/inkscape"
   xmlns:sodipodi="http://sodipodi.sourceforge.net/DTD/sodipodi-0.dtd"
   xmlns="http://www.w3.org/2000/svg"
   xmlns:svg="http://www.w3.org/2000/svg"><sodipodi:namedview
     id="namedview4"
     pagecolor="#ffffff"
     bordercolor="#cccccc"
     borderopacity="1"
     inkscape:showpageshadow="0"
     inkscape:pageopacity="1"
     inkscape:pagecheckerboard="0"
     inkscape:deskcolor="#d1d1d1"
     inkscape:zoom="12.477488"
     inkscape:cx="-0.84151551"
     inkscape:cy="23.281929"
     inkscape:window-width="1920"
     inkscape:window-height="1027"
     inkscape:window-x="0"
     inkscape:window-y="0"
     inkscape:window-maximized="1"
     inkscape:current-layer="svg4" /><defs
     id="defs4"><clipPath
       id="clip0_1432_8654"><rect
         width="24"
         height="24"
         fill="white"
         id="rect4" /></clipPath><clipPath
       clipPathUnits="userSpaceOnUse"
       id="clipPath65"><path
         d="m 161.496,526.6715 36.0658,5.8629 -35.8884,20.7865 z"
         clip-rule="evenodd"
         id="path63" /></clipPath><linearGradient
       x1="197.56"
       y1="540"
       x2="161.5"
       y2="540"
       gradientUnits="userSpaceOnUse"
       spreadMethod="pad"
       id="linearGradient71"><stop
         style="stop-opacity:1;stop-color:#018d4c"
         offset="0"
         id="stop67" /><stop
         style="stop-opacity:1;stop-color:#90c747"
         offset="1"
         id="stop69" /></linearGradient><clipPath
       clipPathUnits="userSpaceOnUse"
       id="clipPath81"><path
         d="m 161.4963,481.189 36.0657,-5.8629 -26.6187,-15.4179 -9.3419,5.4715 z"
         clip-rule="evenodd"
         id="path79" /></clipPath><linearGradient
       x1="186.56"
       y1="460.75"
       x2="172.5"
       y2="480.35001"
       gradientUnits="userSpaceOnUse"
       spreadMethod="pad"
       id="linearGradient89"><stop
         style="stop-opacity:1;stop-color:#1e4794"
         offset="0"
         id="stop83" /><stop
         style="stop-opacity:1;stop-color:#1e4f9c"
         offset="0.55"
         id="stop85" /><stop
         style="stop-opacity:1;stop-color:#1f6ea6"
         offset="1"
         id="stop87" /></linearGradient><clipPath
       clipPathUnits="userSpaceOnUse"
       id="clipPath99"><path
         d="m 203.6812,480.39 -0.3549,43.7059 C 177.9792,499.282 165.306,486.8748 165.306,486.8748 Z"
         clip-rule="evenodd"
         id="path97" /></clipPath><linearGradient
       x1="202.02"
       y1="493.34"
       x2="166.97"
       y2="511.14001"
       gradientUnits="userSpaceOnUse"
       spreadMethod="pad"
       id="linearGradient107"><stop
         style="stop-opacity:1;stop-color:#feb415"
         offset="0"
         id="stop101" /><stop
         style="stop-opacity:1;stop-color:#feb415"
         offset="0.32"
         id="stop103" /><stop
         style="stop-opacity:1;stop-color:#fbdd03"
         offset="1"
         id="stop105" /></linearGradient><clipPath
       clipPathUnits="userSpaceOnUse"
       id="clipPath117"><path
         d="m 155.8108,526.6715 -36.066,5.8629 35.8883,20.7865 z"
         clip-rule="evenodd"
         id="path115" /></clipPath><linearGradient
       x1="124.69"
       y1="530.83002"
       x2="150.86"
       y2="549.15997"
       gradientUnits="userSpaceOnUse"
       spreadMethod="pad"
       id="linearGradient123"><stop
         style="stop-opacity:1;stop-color:#feb415"
         offset="0"
         id="stop119" /><stop
         style="stop-opacity:1;stop-color:#fbdd03"
         offset="1"
         id="stop121" /></linearGradient><clipPath
       clipPathUnits="userSpaceOnUse"
       id="clipPath133"><path
         d="m 199.5106,422.2811 v 13.7549 l -43.8299,25.6683 0.1304,19.4847 -36.0663,-5.8629 72.5593,-41.3617 1.2121,-0.6851 v -10.9982 c 0,-1.6438 1.3535,-2.9965 2.9973,-2.9965 1.6438,0 2.9971,1.3519 2.9971,2.9965"
         clip-rule="evenodd"
         id="path131" /></clipPath><linearGradient
       x1="162.72"
       y1="420.23001"
       x2="156.53"
       y2="480.25"
       gradientUnits="userSpaceOnUse"
       spreadMethod="pad"
       id="linearGradient143"><stop
         style="stop-opacity:1;stop-color:#a90e20"
         offset="0"
         id="stop135" /><stop
         style="stop-opacity:1;stop-color:#ab0e20"
         offset="0.27"
         id="stop137" /><stop
         style="stop-opacity:1;stop-color:#ce2932"
         offset="0.76"
         id="stop139" /><stop
         style="stop-opacity:1;stop-color:#d42d35"
         offset="1"
         id="stop141" /></linearGradient><clipPath
       clipPathUnits="userSpaceOnUse"
       id="clipPath153"><path
         d="m 113.8813,480.39 0.3552,43.7059 c 25.3471,-24.8139 38.0203,-37.2211 38.0203,-37.2211 z"
         clip-rule="evenodd"
         id="path151" /></clipPath><linearGradient
       x1="119.14"
       y1="487.20999"
       x2="147"
       y2="517.27002"
       gradientUnits="userSpaceOnUse"
       spreadMethod="pad"
       id="linearGradient159"><stop
         style="stop-opacity:1;stop-color:#3567c4"
         offset="0"
         id="stop155" /><stop
         style="stop-opacity:1;stop-color:#01aff1"
         offset="1"
         id="stop157" /></linearGradient><clipPath
       clipPathUnits="userSpaceOnUse"
       id="clipPath169"><path
         d="m 155.7201,492.2053 v 0.007 l -0.3549,28.2422 c 0,0 -11.7261,2.0131 -35.1779,6.04 0,0 11.844,-11.4293 35.5328,-34.289"
         clip-rule="evenodd"
         id="path167" /></clipPath><linearGradient
       x1="125.05"
       y1="497.56"
       x2="150.85001"
       y2="521.14001"
       gradientUnits="userSpaceOnUse"
       spreadMethod="pad"
       id="linearGradient175"><stop
         style="stop-opacity:1;stop-color:#feb415"
         offset="0"
         id="stop171" /><stop
         style="stop-opacity:1;stop-color:#fbdd03"
         offset="1"
         id="stop173" /></linearGradient><clipPath
       clipPathUnits="userSpaceOnUse"
       id="clipPath185"><path
         d="m 161.4056,492.2121 v -0.007 c 23.6885,22.8597 35.5328,34.289 35.5328,34.289 -23.4516,-4.0269 -35.1776,-6.04 -35.1776,-6.04 l -0.3552,-28.2422 z"
         clip-rule="evenodd"
         id="path183" /></clipPath><linearGradient
       x1="195.39999"
       y1="502.37"
       x2="162.95"
       y2="516.34003"
       gradientUnits="userSpaceOnUse"
       spreadMethod="pad"
       id="linearGradient193"><stop
         style="stop-opacity:1;stop-color:#14954b"
         offset="0"
         id="stop187" /><stop
         style="stop-opacity:1;stop-color:#10934b"
         offset="0.32"
         id="stop189" /><stop
         style="stop-opacity:1;stop-color:#8fc747"
         offset="1"
         id="stop191" /></linearGradient><clipPath
       clipPathUnits="userSpaceOnUse"
       id="clipPath203"><path
         d="m 116.9337,435.9937 v -13.7548 c 0,-1.6444 1.3538,-2.9971 2.997,-2.9971 1.6439,0 2.9971,1.353 2.9971,2.9971 v 10.9976 l 1.2124,0.6857 17.3942,9.8634 c 0.3569,0.4337 0.597,0.9678 0.6701,1.5531 0.1695,1.3527 -0.5811,2.6558 -1.8379,3.1839 -0.5378,0.2265 -1.1138,0.2874 -1.662,0.1993 z"
         clip-rule="evenodd"
         id="path201" /></clipPath><linearGradient
       x1="116.93"
       y1="435.31"
       x2="146.67999"
       y2="435.31"
       gradientUnits="userSpaceOnUse"
       spreadMethod="pad"
       id="linearGradient209"><stop
         style="stop-opacity:1;stop-color:#03a6e9"
         offset="0"
         id="stop205" /><stop
         style="stop-opacity:1;stop-color:#124fa4"
         offset="1"
         id="stop207" /></linearGradient><clipPath
       clipPathUnits="userSpaceOnUse"
       id="clipPath219"><path
         d="m 157.9825,439.3962 15.4797,-15.4798 h -30.9595 z"
         clip-rule="evenodd"
         id="path217" /></clipPath><linearGradient
       x1="142.5"
       y1="431.64999"
       x2="173.46001"
       y2="431.64999"
       gradientUnits="userSpaceOnUse"
       spreadMethod="pad"
       id="linearGradient225"><stop
         style="stop-opacity:1;stop-color:#03a6e9"
         offset="0"
         id="stop221" /><stop
         style="stop-opacity:1;stop-color:#124fa4"
         offset="1"
         id="stop223" /></linearGradient><clipPath
       clipPathUnits="userSpaceOnUse"
       id="clipPath235"><path
         d="m 106.7289,531.1505 v -56.7102 c 0.005,-0.3107 0.1611,-0.5774 0.4312,-0.7342 l 79.662,-46.3368 c 0.4122,-0.2395 0.9443,-0.0992 1.1846,0.3138 0.2396,0.4119 0.099,0.9445 -0.3135,1.1849 l -79.2312,46.086 v 55.6931 c 16.8767,10.1829 33.9234,20.1589 51.2363,29.5843 16.8466,-9.35 33.1237,-19.7447 49.6451,-29.656 v 0 c 0,-15.8035 0,-36.478 0,-52.2814 0,-0.4773 0.3889,-0.8663 0.8663,-0.8663 0.4776,0 0.8668,0.389 0.8668,0.8663 0,15.9676 0,36.8053 0,52.7723 0,0.3133 -0.1525,0.5826 -0.4209,0.7433 -16.8197,10.0791 -33.3777,20.6699 -50.5338,30.1683 -0.2671,0.1476 -0.5655,0.1491 -0.834,0.003 -17.6224,-9.5823 -34.969,-19.7377 -52.1402,-30.1034 -0.2633,-0.1588 -0.4138,-0.421 -0.4187,-0.7274"
         clip-rule="evenodd"
         id="path233" /></clipPath><linearGradient
       x1="208.39999"
       y1="520.33002"
       x2="109.4"
       y2="469.09"
       gradientUnits="userSpaceOnUse"
       spreadMethod="pad"
       id="linearGradient243"><stop
         style="stop-opacity:1;stop-color:#1155a9"
         offset="0"
         id="stop237" /><stop
         style="stop-opacity:1;stop-color:#105db0"
         offset="0.61"
         id="stop239" /><stop
         style="stop-opacity:1;stop-color:#059de2"
         offset="1"
         id="stop241" /></linearGradient></defs><g
     id="g788"
     transform="matrix(0.15791793,0,0,-0.15791793,-12.857795,89.422568)"><g
       id="g59"><g
         id="g61"
         clip-path="url(#clipPath65)"><path
           d="m 161.496,526.6715 36.0658,5.8629 -35.8884,20.7865 z"
           style="fill:url(#linearGradient71);fill-rule:evenodd;stroke:none"
           id="path73" /></g></g><g
       id="g75"><g
         id="g77"
         clip-path="url(#clipPath81)"><path
           d="m 161.4963,481.189 36.0657,-5.8629 -26.6187,-15.4179 -9.3419,5.4715 z"
           style="fill:url(#linearGradient89);fill-rule:evenodd;stroke:none"
           id="path91" /></g></g><g
       id="g93"><g
         id="g95"
         clip-path="url(#clipPath99)"><path
           d="m 203.6812,480.39 -0.3549,43.7059 C 177.9792,499.282 165.306,486.8748 165.306,486.8748 Z"
           style="fill:url(#linearGradient107);fill-rule:evenodd;stroke:none"
           id="path109" /></g></g><g
       id="g111"><g
         id="g113"
         clip-path="url(#clipPath117)"><path
           d="m 155.8108,526.6715 -36.066,5.8629 35.8883,20.7865 z"
           style="fill:url(#linearGradient123);fill-rule:evenodd;stroke:none"
           id="path125" /></g></g><g
       id="g127"><g
         id="g129"
         clip-path="url(#clipPath133)"><path
           d="m 199.5106,422.2811 v 13.7549 l -43.8299,25.6683 0.1304,19.4847 -36.0663,-5.8629 72.5593,-41.3617 1.2121,-0.6851 v -10.9982 c 0,-1.6438 1.3535,-2.9965 2.9973,-2.9965 1.6438,0 2.9971,1.3519 2.9971,2.9965"
           style="fill:url(#linearGradient143);fill-rule:evenodd;stroke:none"
           id="path145" /></g></g><g
       id="g147"><g
         id="g149"
         clip-path="url(#clipPath153)"><path
           d="m 113.8813,480.39 0.3552,43.7059 c 25.3471,-24.8139 38.0203,-37.2211 38.0203,-37.2211 z"
           style="fill:url(#linearGradient159);fill-rule:evenodd;stroke:none"
           id="path161" /></g></g><g
       id="g163"><g
         id="g165"
         clip-path="url(#clipPath169)"><path
           d="m 155.7201,492.2053 v 0.007 l -0.3549,28.2422 c 0,0 -11.7261,2.0131 -35.1779,6.04 0,0 11.844,-11.4293 35.5328,-34.289"
           style="fill:url(#linearGradient175);fill-rule:evenodd;stroke:none"
           id="path177" /></g></g><g
       id="g179"><g
         id="g181"
         clip-path="url(#clipPath185)"><path
           d="m 161.4056,492.2121 v -0.007 c 23.6885,22.8597 35.5328,34.289 35.5328,34.289 -23.4516,-4.0269 -35.1776,-6.04 -35.1776,-6.04 l -0.3552,-28.2422 z"
           style="fill:url(#linearGradient193);fill-rule:evenodd;stroke:none"
           id="path195" /></g></g><g
       id="g197"><g
         id="g199"
         clip-path="url(#clipPath203)"><path
           d="m 116.9337,435.9937 v -13.7548 c 0,-1.6444 1.3538,-2.9971 2.997,-2.9971 1.6439,0 2.9971,1.353 2.9971,2.9971 v 10.9976 l 1.2124,0.6857 17.3942,9.8634 c 0.3569,0.4337 0.597,0.9678 0.6701,1.5531 0.1695,1.3527 -0.5811,2.6558 -1.8379,3.1839 -0.5378,0.2265 -1.1138,0.2874 -1.662,0.1993 z"
           style="fill:url(#linearGradient209);fill-rule:evenodd;stroke:none"
           id="path211" /></g></g><g
       id="g213"><g
         id="g215"
         clip-path="url(#clipPath219)"><path
           d="m 157.9825,439.3962 15.4797,-15.4798 h -30.9595 z"
           style="fill:url(#linearGradient225);fill-rule:evenodd;stroke:none"
           id="path227" /></g></g><g
       id="g229"><g
         id="g231"
         clip-path="url(#clipPath235)"><path
           d="m 106.7289,531.1505 v -56.7102 c 0.005,-0.3107 0.1611,-0.5774 0.4312,-0.7342 l 79.662,-46.3368 c 0.4122,-0.2395 0.9443,-0.0992 1.1846,0.3138 0.2396,0.4119 0.099,0.9445 -0.3135,1.1849 l -79.2312,46.086 v 55.6931 c 16.8767,10.1829 33.9234,20.1589 51.2363,29.5843 16.8466,-9.35 33.1237,-19.7447 49.6451,-29.656 v 0 c 0,-15.8035 0,-36.478 0,-52.2814 0,-0.4773 0.3889,-0.8663 0.8663,-0.8663 0.4776,0 0.8668,0.389 0.8668,0.8663 0,15.9676 0,36.8053 0,52.7723 0,0.3133 -0.1525,0.5826 -0.4209,0.7433 -16.8197,10.0791 -33.3777,20.6699 -50.5338,30.1683 -0.2671,0.1476 -0.5655,0.1491 -0.834,0.003 -17.6224,-9.5823 -34.969,-19.7377 -52.1402,-30.1034 -0.2633,-0.1588 -0.4138,-0.421 -0.4187,-0.7274"
           style="fill:url(#linearGradient243);fill-rule:evenodd;stroke:none"
           id="path245" /></g></g></g></svg>
