<?xml version="1.0" encoding="UTF-8" standalone="no"?>
<svg
   width="72px"
   height="72px"
   viewBox="0 0 72 72"
   version="1.1"
   id="svg1"
   sodipodi:docname="orcid.logo.icon_black.svg"
   inkscape:version="1.3.2 (1:1.3.2+202311252150+091e20ef0f)"
   xmlns:inkscape="http://www.inkscape.org/namespaces/inkscape"
   xmlns:sodipodi="http://sodipodi.sourceforge.net/DTD/sodipodi-0.dtd"
   xmlns="http://www.w3.org/2000/svg"
   xmlns:svg="http://www.w3.org/2000/svg">
  <defs
     id="defs1" />
  <sodipodi:namedview
     id="namedview1"
     pagecolor="#ffffff"
     bordercolor="#cccccc"
     borderopacity="1"
     inkscape:showpageshadow="0"
     inkscape:pageopacity="1"
     inkscape:pagecheckerboard="0"
     inkscape:deskcolor="#d1d1d1"
     inkscape:zoom="11.388889"
     inkscape:cx="35.956098"
     inkscape:cy="36"
     inkscape:window-width="1920"
     inkscape:window-height="1017"
     inkscape:window-x="0"
     inkscape:window-y="0"
     inkscape:window-maximized="1"
     inkscape:current-layer="hero" />
  <!-- Generator: sketchtool 53.1 (72631) - https://sketchapp.com -->
  <title
     id="title1">Orcid logo</title>
  <g
     id="Symbols"
     stroke="none"
     stroke-width="1"
     fill="none"
     fill-rule="evenodd">
    <g
       id="hero"
       transform="translate(-924.000000, -72.000000)"
       fill-rule="nonzero">
      <path
         d="m 996,108 c 0,19.88438 -16.11563,36 -36,36 -19.88437,0 -36,-16.11562 -36,-36 0,-19.884375 16.11563,-36 36,-36 19.88437,0 36,16.115625 36,36 z"
         id="Path"
         fill="#a6ce39"
         style="fill:#1a1a1a" />
      <polygon
         id="polygon1"
         points="0.69542986,39.125088 0.69542986,9.1443179 5.0373493,9.1443179 5.0373493,22.69305 5.0373493,39.125088 "
         transform="translate(942.86897,84.910345)"
         style="fill:#ffffff" />
      <path
         d="m 954.27823,94.054663 h 11.72882 c 11.16493,0 16.07074,7.922087 16.07074,15.004377 0,7.69815 -6.06177,15.00439 -16.01435,15.00439 h -11.78521 z m 4.34192,26.117697 h 6.9076 c 9.8398,0 12.09534,-7.41821 12.09534,-11.11332 0,-6.01854 -3.86261,-11.113316 -12.3209,-11.113316 h -6.68204 z"
         id="Shape"
         style="fill:#ffffff" />
      <path
         d="m 948.58298,87.812168 c 0,1.539629 -1.26874,2.827319 -2.84762,2.827319 -1.57888,0 -2.84762,-1.28769 -2.84762,-2.827319 0,-1.567622 1.26874,-2.827318 2.84762,-2.827318 1.57888,0 2.84762,1.28769 2.84762,2.827318 z"
         id="path1"
         style="fill:#ffffff" />
    </g>
  </g>
</svg>
